P3
4 4 15
0 3 1  0 2 1  2 3 1  3 1 0  0 2 1  0 3 1  1 4 1  2 3 1  2 3 1  1 4 1  0 3 1  0 2 1  3 1 0  2 3 1  0 2 1  0 3 1  